<?xml version="1.0" encoding="UTF-8" standalone="no"?>
<!DOCTYPE svg PUBLIC "-//W3C//DTD SVG 1.1//EN"
 "http://www.w3.org/Graphics/SVG/1.1/DTD/svg11.dtd">
<!-- Generated by graphviz version 2.46.0 (20210118.1747)
 -->
<!-- Title: g Pages: 1 -->
<svg width="463pt" height="425pt"
 viewBox="0.00 0.00 463.07 425.44" xmlns="http://www.w3.org/2000/svg" xmlns:xlink="http://www.w3.org/1999/xlink">
<g id="graph0" class="graph" transform="scale(1 1) rotate(0) translate(4 421.44)">
<title>g</title>
<polygon fill="white" stroke="transparent" points="-4,4 -4,-421.44 459.07,-421.44 459.07,4 -4,4"/>
<!-- 1 -->
<g id="node1" class="node">
<title>1</title>
<ellipse fill="none" stroke="black" cx="389.77" cy="-90.85" rx="27" ry="18"/>
<text text-anchor="middle" x="389.77" y="-86.65" font-family="Times,serif" font-size="14.00">1</text>
</g>
<!-- 2 -->
<g id="node2" class="node">
<title>2</title>
<ellipse fill="none" stroke="black" cx="289.5" cy="-18" rx="27" ry="18"/>
<text text-anchor="middle" x="289.5" y="-13.8" font-family="Times,serif" font-size="14.00">2</text>
</g>
<!-- 1&#45;&#45;2 -->
<g id="edge1" class="edge">
<title>1&#45;&#45;2</title>
<path fill="none" stroke="black" d="M376.67,-75.01C360.27,-60.56 332.14,-39.97 312.23,-27.74"/>
</g>
<!-- 0 -->
<g id="node3" class="node">
<title>0</title>
<ellipse fill="none" stroke="black" cx="428.07" cy="-208.72" rx="27" ry="18"/>
<text text-anchor="middle" x="428.07" y="-204.52" font-family="Times,serif" font-size="14.00">0</text>
</g>
<!-- 1&#45;&#45;0 -->
<g id="edge2" class="edge">
<title>1&#45;&#45;0</title>
<path fill="none" stroke="black" d="M390.54,-108.99C395.35,-131.71 407.81,-170.23 417.41,-192.17"/>
</g>
<!-- 2&#45;&#45;1 -->
<g id="edge3" class="edge">
<title>2&#45;&#45;1</title>
<path fill="none" stroke="black" d="M302.61,-33.84C319,-48.29 347.14,-68.88 367.04,-81.1"/>
</g>
<!-- 3 -->
<g id="node4" class="node">
<title>3</title>
<ellipse fill="none" stroke="black" cx="165.57" cy="-18" rx="27" ry="18"/>
<text text-anchor="middle" x="165.57" y="-13.8" font-family="Times,serif" font-size="14.00">3</text>
</g>
<!-- 2&#45;&#45;3 -->
<g id="edge4" class="edge">
<title>2&#45;&#45;3</title>
<path fill="none" stroke="black" d="M263.82,-12.41C242.7,-10.87 212.88,-10.86 191.64,-12.38"/>
</g>
<!-- 0&#45;&#45;1 -->
<g id="edge19" class="edge">
<title>0&#45;&#45;1</title>
<path fill="none" stroke="black" d="M427.3,-190.58C422.49,-167.86 410.03,-129.33 400.44,-107.39"/>
</g>
<!-- 9 -->
<g id="node10" class="node">
<title>9</title>
<ellipse fill="none" stroke="black" cx="389.77" cy="-326.59" rx="27" ry="18"/>
<text text-anchor="middle" x="389.77" y="-322.39" font-family="Times,serif" font-size="14.00">9</text>
</g>
<!-- 0&#45;&#45;9 -->
<g id="edge20" class="edge">
<title>0&#45;&#45;9</title>
<path fill="none" stroke="black" d="M417.27,-225.57C407.71,-247.52 395.37,-285.69 390.57,-308.32"/>
</g>
<!-- 3&#45;&#45;2 -->
<g id="edge5" class="edge">
<title>3&#45;&#45;2</title>
<path fill="none" stroke="black" d="M191.25,-23.59C212.38,-25.13 242.19,-25.14 263.43,-23.62"/>
</g>
<!-- 4 -->
<g id="node5" class="node">
<title>4</title>
<ellipse fill="none" stroke="black" cx="65.3" cy="-90.85" rx="27" ry="18"/>
<text text-anchor="middle" x="65.3" y="-86.65" font-family="Times,serif" font-size="14.00">4</text>
</g>
<!-- 3&#45;&#45;4 -->
<g id="edge6" class="edge">
<title>3&#45;&#45;4</title>
<path fill="none" stroke="black" d="M142.77,-27.78C122.91,-39.99 94.89,-60.49 78.5,-74.92"/>
</g>
<!-- 4&#45;&#45;3 -->
<g id="edge7" class="edge">
<title>4&#45;&#45;3</title>
<path fill="none" stroke="black" d="M88.09,-81.06C107.96,-68.86 135.98,-48.36 152.37,-33.93"/>
</g>
<!-- 5 -->
<g id="node6" class="node">
<title>5</title>
<ellipse fill="none" stroke="black" cx="27" cy="-208.72" rx="27" ry="18"/>
<text text-anchor="middle" x="27" y="-204.52" font-family="Times,serif" font-size="14.00">5</text>
</g>
<!-- 4&#45;&#45;5 -->
<g id="edge8" class="edge">
<title>4&#45;&#45;5</title>
<path fill="none" stroke="black" d="M54.5,-107.7C44.94,-129.65 32.6,-167.82 27.8,-190.45"/>
</g>
<!-- 5&#45;&#45;4 -->
<g id="edge9" class="edge">
<title>5&#45;&#45;4</title>
<path fill="none" stroke="black" d="M37.8,-191.87C47.36,-169.92 59.7,-131.75 64.5,-109.12"/>
</g>
<!-- 6 -->
<g id="node7" class="node">
<title>6</title>
<ellipse fill="none" stroke="black" cx="65.3" cy="-326.59" rx="27" ry="18"/>
<text text-anchor="middle" x="65.3" y="-322.39" font-family="Times,serif" font-size="14.00">6</text>
</g>
<!-- 5&#45;&#45;6 -->
<g id="edge10" class="edge">
<title>5&#45;&#45;6</title>
<path fill="none" stroke="black" d="M27.77,-226.86C32.58,-249.58 45.04,-288.11 54.63,-310.05"/>
</g>
<!-- 6&#45;&#45;5 -->
<g id="edge11" class="edge">
<title>6&#45;&#45;5</title>
<path fill="none" stroke="black" d="M64.53,-308.45C59.72,-285.73 47.26,-247.21 37.66,-225.27"/>
</g>
<!-- 7 -->
<g id="node8" class="node">
<title>7</title>
<ellipse fill="none" stroke="black" cx="165.57" cy="-399.44" rx="27" ry="18"/>
<text text-anchor="middle" x="165.57" y="-395.24" font-family="Times,serif" font-size="14.00">7</text>
</g>
<!-- 6&#45;&#45;7 -->
<g id="edge12" class="edge">
<title>6&#45;&#45;7</title>
<path fill="none" stroke="black" d="M78.4,-342.43C94.8,-356.88 122.93,-377.47 142.84,-389.7"/>
</g>
<!-- 7&#45;&#45;6 -->
<g id="edge13" class="edge">
<title>7&#45;&#45;6</title>
<path fill="none" stroke="black" d="M152.46,-383.6C136.07,-369.15 107.94,-348.56 88.03,-336.34"/>
</g>
<!-- 8 -->
<g id="node9" class="node">
<title>8</title>
<ellipse fill="none" stroke="black" cx="289.5" cy="-399.44" rx="27" ry="18"/>
<text text-anchor="middle" x="289.5" y="-395.24" font-family="Times,serif" font-size="14.00">8</text>
</g>
<!-- 7&#45;&#45;8 -->
<g id="edge14" class="edge">
<title>7&#45;&#45;8</title>
<path fill="none" stroke="black" d="M191.25,-405.03C212.38,-406.57 242.19,-406.58 263.43,-405.06"/>
</g>
<!-- 8&#45;&#45;7 -->
<g id="edge15" class="edge">
<title>8&#45;&#45;7</title>
<path fill="none" stroke="black" d="M263.82,-393.85C242.7,-392.31 212.88,-392.3 191.64,-393.82"/>
</g>
<!-- 8&#45;&#45;9 -->
<g id="edge16" class="edge">
<title>8&#45;&#45;9</title>
<path fill="none" stroke="black" d="M312.3,-389.66C332.16,-377.45 360.18,-356.95 376.57,-342.52"/>
</g>
<!-- 9&#45;&#45;0 -->
<g id="edge18" class="edge">
<title>9&#45;&#45;0</title>
<path fill="none" stroke="black" d="M400.57,-309.74C410.13,-287.79 422.47,-249.62 427.27,-226.99"/>
</g>
<!-- 9&#45;&#45;8 -->
<g id="edge17" class="edge">
<title>9&#45;&#45;8</title>
<path fill="none" stroke="black" d="M366.98,-336.38C347.11,-348.58 319.1,-369.08 302.7,-383.51"/>
</g>
</g>
</svg>
