<?xml version="1.0" encoding="UTF-8" standalone="no"?>
<!DOCTYPE svg PUBLIC "-//W3C//DTD SVG 1.1//EN"
 "http://www.w3.org/Graphics/SVG/1.1/DTD/svg11.dtd">
<!-- Generated by graphviz version 2.46.0 (20210118.1747)
 -->
<!-- Title: g Pages: 1 -->
<svg width="172pt" height="905pt"
 viewBox="0.00 0.00 172.00 904.60" xmlns="http://www.w3.org/2000/svg" xmlns:xlink="http://www.w3.org/1999/xlink">
<g id="graph0" class="graph" transform="scale(1 1) rotate(0) translate(4 900.6)">
<title>g</title>
<polygon fill="white" stroke="transparent" points="-4,4 -4,-900.6 168,-900.6 168,4 -4,4"/>
<!-- 1 -->
<g id="node1" class="node">
<title>1</title>
<ellipse fill="none" stroke="black" cx="125" cy="-873.6" rx="23" ry="23"/>
<text text-anchor="middle" x="125" y="-869.4" font-family="Times,serif" font-size="14.00">0,0</text>
</g>
<!-- 2 -->
<g id="node2" class="node">
<title>2</title>
<ellipse fill="none" stroke="black" cx="95" cy="-790.6" rx="23" ry="23"/>
<text text-anchor="middle" x="95" y="-786.4" font-family="Times,serif" font-size="14.00">1,1</text>
</g>
<!-- 1&#45;&#45;2 -->
<g id="edge1" class="edge">
<title>1&#45;&#45;2</title>
<path fill="none" stroke="black" d="M112.43,-854.22C106.77,-842.18 100.81,-826.37 97.08,-813.65"/>
</g>
<!-- 0 -->
<g id="node3" class="node">
<title>0</title>
<ellipse fill="none" stroke="black" cx="125" cy="-23" rx="23" ry="23"/>
<text text-anchor="middle" x="125" y="-18.8" font-family="Times,serif" font-size="14.00">9,9</text>
</g>
<!-- 1&#45;&#45;0 -->
<g id="edge2" class="edge">
<title>1&#45;&#45;0</title>
<path fill="none" stroke="black" d="M130.23,-851.05C136.9,-835.17 146,-812.74 146,-791.6 146,-791.6 146,-791.6 146,-105 146,-83.86 136.9,-61.43 130.23,-45.55"/>
</g>
<!-- 2&#45;&#45;1 -->
<g id="edge3" class="edge">
<title>2&#45;&#45;1</title>
<path fill="none" stroke="black" d="M107.65,-810.14C113.27,-822.14 119.18,-837.82 122.89,-850.47"/>
</g>
<!-- 3 -->
<g id="node4" class="node">
<title>3</title>
<ellipse fill="none" stroke="black" cx="95" cy="-707.6" rx="23" ry="23"/>
<text text-anchor="middle" x="95" y="-703.4" font-family="Times,serif" font-size="14.00">2,2</text>
</g>
<!-- 2&#45;&#45;3 -->
<g id="edge4" class="edge">
<title>2&#45;&#45;3</title>
<path fill="none" stroke="black" d="M88.98,-768.32C88.01,-756.51 88.01,-741.86 88.97,-730.02"/>
</g>
<!-- 0&#45;&#45;1 -->
<g id="edge19" class="edge">
<title>0&#45;&#45;1</title>
<path fill="none" stroke="black" d="M141.29,-39.51C152.28,-55.36 164,-81.01 164,-105 164,-791.6 164,-791.6 164,-791.6 164,-815.59 152.28,-841.24 141.29,-857.09"/>
</g>
<!-- 9 -->
<g id="node10" class="node">
<title>9</title>
<ellipse fill="none" stroke="black" cx="92" cy="-106" rx="23" ry="23"/>
<text text-anchor="middle" x="92" y="-101.8" font-family="Times,serif" font-size="14.00">8,8</text>
</g>
<!-- 0&#45;&#45;9 -->
<g id="edge20" class="edge">
<title>0&#45;&#45;9</title>
<path fill="none" stroke="black" d="M122.13,-45.97C117.89,-58.84 111.22,-74.91 105.04,-87.02"/>
</g>
<!-- 3&#45;&#45;2 -->
<g id="edge5" class="edge">
<title>3&#45;&#45;2</title>
<path fill="none" stroke="black" d="M101.03,-730.02C101.99,-741.86 101.99,-756.51 101.02,-768.32"/>
</g>
<!-- 4 -->
<g id="node5" class="node">
<title>4</title>
<ellipse fill="none" stroke="black" cx="95" cy="-624.6" rx="23" ry="23"/>
<text text-anchor="middle" x="95" y="-620.4" font-family="Times,serif" font-size="14.00">3,3</text>
</g>
<!-- 3&#45;&#45;4 -->
<g id="edge6" class="edge">
<title>3&#45;&#45;4</title>
<path fill="none" stroke="black" d="M88.98,-685.32C88.01,-673.51 88.01,-658.86 88.97,-647.02"/>
</g>
<!-- 4&#45;&#45;3 -->
<g id="edge7" class="edge">
<title>4&#45;&#45;3</title>
<path fill="none" stroke="black" d="M101.03,-647.02C101.99,-658.86 101.99,-673.51 101.02,-685.32"/>
</g>
<!-- 5 -->
<g id="node6" class="node">
<title>5</title>
<ellipse fill="none" stroke="black" cx="95" cy="-541.6" rx="23" ry="23"/>
<text text-anchor="middle" x="95" y="-537.4" font-family="Times,serif" font-size="14.00">4,4</text>
</g>
<!-- 4&#45;&#45;5 -->
<g id="edge8" class="edge">
<title>4&#45;&#45;5</title>
<path fill="none" stroke="black" d="M88.98,-602.32C88.01,-590.51 88.01,-575.86 88.97,-564.02"/>
</g>
<!-- 5&#45;&#45;4 -->
<g id="edge9" class="edge">
<title>5&#45;&#45;4</title>
<path fill="none" stroke="black" d="M101.03,-564.02C101.99,-575.86 101.99,-590.51 101.02,-602.32"/>
</g>
<!-- 6 -->
<g id="node7" class="node">
<title>6</title>
<ellipse fill="none" stroke="black" cx="95" cy="-458.6" rx="23" ry="23"/>
<text text-anchor="middle" x="95" y="-454.4" font-family="Times,serif" font-size="14.00">5,5</text>
</g>
<!-- 5&#45;&#45;6 -->
<g id="edge10" class="edge">
<title>5&#45;&#45;6</title>
<path fill="none" stroke="black" d="M88.98,-519.32C88.01,-507.51 88.01,-492.86 88.97,-481.02"/>
</g>
<!-- 6&#45;&#45;5 -->
<g id="edge11" class="edge">
<title>6&#45;&#45;5</title>
<path fill="none" stroke="black" d="M101.03,-481.02C101.99,-492.86 101.99,-507.51 101.02,-519.32"/>
</g>
<!-- 7 -->
<g id="node8" class="node">
<title>7</title>
<ellipse fill="none" stroke="black" cx="93" cy="-375.6" rx="23" ry="23"/>
<text text-anchor="middle" x="93" y="-371.4" font-family="Times,serif" font-size="14.00">6,6</text>
</g>
<!-- 6&#45;&#45;7 -->
<g id="edge12" class="edge">
<title>6&#45;&#45;7</title>
<path fill="none" stroke="black" d="M88.45,-436.32C87.19,-424.51 86.83,-409.86 87.49,-398.02"/>
</g>
<!-- 7&#45;&#45;6 -->
<g id="edge13" class="edge">
<title>7&#45;&#45;6</title>
<path fill="none" stroke="black" d="M99.54,-397.81C100.79,-409.54 101.17,-424.08 100.52,-435.89"/>
</g>
<!-- 8 -->
<g id="node9" class="node">
<title>8</title>
<ellipse fill="none" stroke="blue" cx="59" cy="-240.8" rx="59" ry="59"/>
<text text-anchor="middle" x="59" y="-236.6" font-family="Times,serif" font-size="14.00">state=8,id=7</text>
</g>
<!-- 7&#45;&#45;8 -->
<g id="edge14" class="edge">
<title>7&#45;&#45;8</title>
<path fill="none" stroke="black" d="M82.38,-355.11C79.28,-348.73 76.15,-341.5 74,-334.6 70.56,-323.54 67.87,-311.47 65.78,-299.81"/>
</g>
<!-- 8&#45;&#45;7 -->
<g id="edge15" class="edge">
<title>8&#45;&#45;7</title>
<path fill="none" stroke="red" d="M73.41,-298.1C78.38,-317.48 83.64,-338.05 87.46,-352.97"/>
<text text-anchor="middle" x="85.5" y="-322" font-family="Times,serif" font-size="14.00">8</text>
</g>
<!-- 8&#45;&#45;9 -->
<g id="edge16" class="edge">
<title>8&#45;&#45;9</title>
<path fill="none" stroke="red" d="M57.21,-181.42C58.21,-169.79 60.26,-157.83 64,-147 66.88,-138.67 72.04,-130.5 77.15,-123.75"/>
<text text-anchor="middle" x="67.5" y="-151.2" font-family="Times,serif" font-size="14.00">8</text>
</g>
<!-- 9&#45;&#45;0 -->
<g id="edge18" class="edge">
<title>9&#45;&#45;0</title>
<path fill="none" stroke="black" d="M94.93,-82.87C99.17,-70.03 105.79,-54.08 111.94,-42.01"/>
</g>
<!-- 9&#45;&#45;8 -->
<g id="edge17" class="edge">
<title>9&#45;&#45;8</title>
<path fill="none" stroke="black" d="M86.62,-128.66C82.91,-143.57 77.81,-164.11 72.99,-183.48"/>
</g>
</g>
</svg>
