<?xml version="1.0" encoding="UTF-8" standalone="no"?>
<!DOCTYPE svg PUBLIC "-//W3C//DTD SVG 1.1//EN"
 "http://www.w3.org/Graphics/SVG/1.1/DTD/svg11.dtd">
<!-- Generated by graphviz version 2.46.0 (20210118.1747)
 -->
<!-- Title: g Pages: 1 -->
<svg width="130pt" height="905pt"
 viewBox="0.00 0.00 130.00 904.60" xmlns="http://www.w3.org/2000/svg" xmlns:xlink="http://www.w3.org/1999/xlink">
<g id="graph0" class="graph" transform="scale(1 1) rotate(0) translate(4 900.6)">
<title>g</title>
<polygon fill="white" stroke="transparent" points="-4,4 -4,-900.6 126,-900.6 126,4 -4,4"/>
<!-- 1 -->
<g id="node1" class="node">
<title>1</title>
<ellipse fill="none" stroke="black" cx="49" cy="-873.6" rx="23" ry="23"/>
<text text-anchor="middle" x="49" y="-869.4" font-family="Times,serif" font-size="14.00">0,0</text>
</g>
<!-- 2 -->
<g id="node2" class="node">
<title>2</title>
<ellipse fill="none" stroke="black" cx="23" cy="-790.6" rx="23" ry="23"/>
<text text-anchor="middle" x="23" y="-786.4" font-family="Times,serif" font-size="14.00">1,1</text>
</g>
<!-- 1&#45;&#45;2 -->
<g id="edge1" class="edge">
<title>1&#45;&#45;2</title>
<path fill="none" stroke="black" d="M37.17,-853.81C32.17,-841.85 27.08,-826.3 24.01,-813.73"/>
</g>
<!-- 0 -->
<g id="node3" class="node">
<title>0</title>
<ellipse fill="none" stroke="blue" cx="63" cy="-59" rx="59" ry="59"/>
<text text-anchor="middle" x="63" y="-54.8" font-family="Times,serif" font-size="14.00">state=9,id=9</text>
</g>
<!-- 1&#45;&#45;0 -->
<g id="edge2" class="edge">
<title>1&#45;&#45;0</title>
<path fill="none" stroke="black" d="M58.88,-852.49C65.87,-836.41 74,-813.09 74,-791.6 74,-791.6 74,-791.6 74,-192.8 74,-168.16 72.1,-141.04 69.87,-117.76"/>
</g>
<!-- 2&#45;&#45;1 -->
<g id="edge3" class="edge">
<title>2&#45;&#45;1</title>
<path fill="none" stroke="black" d="M34.84,-810.41C39.84,-822.37 44.92,-837.91 47.99,-850.47"/>
</g>
<!-- 3 -->
<g id="node4" class="node">
<title>3</title>
<ellipse fill="none" stroke="black" cx="23" cy="-707.6" rx="23" ry="23"/>
<text text-anchor="middle" x="23" y="-703.4" font-family="Times,serif" font-size="14.00">2,2</text>
</g>
<!-- 2&#45;&#45;3 -->
<g id="edge4" class="edge">
<title>2&#45;&#45;3</title>
<path fill="none" stroke="black" d="M16.98,-768.32C16.01,-756.51 16.01,-741.86 16.97,-730.02"/>
</g>
<!-- 0&#45;&#45;1 -->
<g id="edge19" class="edge">
<title>0&#45;&#45;1</title>
<path fill="none" stroke="red" d="M91.36,-111.08C102.2,-135.13 112,-164.66 112,-192.8 112,-791.6 112,-791.6 112,-791.6 112,-820.64 86.46,-845.54 67.9,-859.79"/>
<text text-anchor="middle" x="115.5" y="-488" font-family="Times,serif" font-size="14.00">9</text>
</g>
<!-- 9 -->
<g id="node10" class="node">
<title>9</title>
<ellipse fill="none" stroke="black" cx="23" cy="-193.8" rx="23" ry="23"/>
<text text-anchor="middle" x="23" y="-189.6" font-family="Times,serif" font-size="14.00">8,8</text>
</g>
<!-- 0&#45;&#45;9 -->
<g id="edge20" class="edge">
<title>0&#45;&#45;9</title>
<path fill="none" stroke="red" d="M46.23,-115.67C40.3,-135.37 33.98,-156.36 29.43,-171.46"/>
<text text-anchor="middle" x="43.5" y="-140.2" font-family="Times,serif" font-size="14.00">9</text>
</g>
<!-- 3&#45;&#45;2 -->
<g id="edge5" class="edge">
<title>3&#45;&#45;2</title>
<path fill="none" stroke="black" d="M29.03,-730.02C29.99,-741.86 29.99,-756.51 29.02,-768.32"/>
</g>
<!-- 4 -->
<g id="node5" class="node">
<title>4</title>
<ellipse fill="none" stroke="black" cx="23" cy="-624.6" rx="23" ry="23"/>
<text text-anchor="middle" x="23" y="-620.4" font-family="Times,serif" font-size="14.00">3,3</text>
</g>
<!-- 3&#45;&#45;4 -->
<g id="edge6" class="edge">
<title>3&#45;&#45;4</title>
<path fill="none" stroke="black" d="M16.98,-685.32C16.01,-673.51 16.01,-658.86 16.97,-647.02"/>
</g>
<!-- 4&#45;&#45;3 -->
<g id="edge7" class="edge">
<title>4&#45;&#45;3</title>
<path fill="none" stroke="black" d="M29.03,-647.02C29.99,-658.86 29.99,-673.51 29.02,-685.32"/>
</g>
<!-- 5 -->
<g id="node6" class="node">
<title>5</title>
<ellipse fill="none" stroke="black" cx="23" cy="-541.6" rx="23" ry="23"/>
<text text-anchor="middle" x="23" y="-537.4" font-family="Times,serif" font-size="14.00">4,4</text>
</g>
<!-- 4&#45;&#45;5 -->
<g id="edge8" class="edge">
<title>4&#45;&#45;5</title>
<path fill="none" stroke="black" d="M16.98,-602.32C16.01,-590.51 16.01,-575.86 16.97,-564.02"/>
</g>
<!-- 5&#45;&#45;4 -->
<g id="edge9" class="edge">
<title>5&#45;&#45;4</title>
<path fill="none" stroke="black" d="M29.03,-564.02C29.99,-575.86 29.99,-590.51 29.02,-602.32"/>
</g>
<!-- 6 -->
<g id="node7" class="node">
<title>6</title>
<ellipse fill="none" stroke="black" cx="23" cy="-442.8" rx="23" ry="23"/>
<text text-anchor="middle" x="23" y="-438.6" font-family="Times,serif" font-size="14.00">5,5</text>
</g>
<!-- 5&#45;&#45;6 -->
<g id="edge10" class="edge">
<title>5&#45;&#45;6</title>
<path fill="none" stroke="black" d="M17.28,-519.12C15.9,-503.08 15.91,-481.25 17.29,-465.22"/>
</g>
<!-- 6&#45;&#45;5 -->
<g id="edge11" class="edge">
<title>6&#45;&#45;5</title>
<path fill="none" stroke="black" d="M28.71,-465.22C30.09,-481.25 30.1,-503.08 28.72,-519.12"/>
</g>
<!-- 7 -->
<g id="node8" class="node">
<title>7</title>
<ellipse fill="none" stroke="black" cx="23" cy="-359.8" rx="23" ry="23"/>
<text text-anchor="middle" x="23" y="-355.6" font-family="Times,serif" font-size="14.00">6,6</text>
</g>
<!-- 6&#45;&#45;7 -->
<g id="edge12" class="edge">
<title>6&#45;&#45;7</title>
<path fill="none" stroke="black" d="M16.98,-420.52C16.01,-408.71 16.01,-394.06 16.97,-382.22"/>
</g>
<!-- 7&#45;&#45;6 -->
<g id="edge13" class="edge">
<title>7&#45;&#45;6</title>
<path fill="none" stroke="black" d="M29.03,-382.22C29.99,-394.06 29.99,-408.71 29.02,-420.52"/>
</g>
<!-- 8 -->
<g id="node9" class="node">
<title>8</title>
<ellipse fill="none" stroke="black" cx="23" cy="-276.8" rx="23" ry="23"/>
<text text-anchor="middle" x="23" y="-272.6" font-family="Times,serif" font-size="14.00">7,7</text>
</g>
<!-- 7&#45;&#45;8 -->
<g id="edge14" class="edge">
<title>7&#45;&#45;8</title>
<path fill="none" stroke="black" d="M16.98,-337.52C16.01,-325.71 16.01,-311.06 16.97,-299.22"/>
</g>
<!-- 8&#45;&#45;7 -->
<g id="edge15" class="edge">
<title>8&#45;&#45;7</title>
<path fill="none" stroke="black" d="M29.03,-299.22C29.99,-311.06 29.99,-325.71 29.02,-337.52"/>
</g>
<!-- 8&#45;&#45;9 -->
<g id="edge16" class="edge">
<title>8&#45;&#45;9</title>
<path fill="none" stroke="black" d="M16.98,-254.52C16.01,-242.71 16.01,-228.06 16.97,-216.22"/>
</g>
<!-- 9&#45;&#45;0 -->
<g id="edge18" class="edge">
<title>9&#45;&#45;0</title>
<path fill="none" stroke="black" d="M25.83,-170.72C27.46,-160.11 29.82,-147.27 33,-136 35.08,-128.63 37.62,-120.98 40.33,-113.51"/>
</g>
<!-- 9&#45;&#45;8 -->
<g id="edge17" class="edge">
<title>9&#45;&#45;8</title>
<path fill="none" stroke="black" d="M29.03,-216.22C29.99,-228.06 29.99,-242.71 29.02,-254.52"/>
</g>
</g>
</svg>
