<?xml version="1.0" encoding="UTF-8" standalone="no"?>
<!DOCTYPE svg PUBLIC "-//W3C//DTD SVG 1.1//EN"
 "http://www.w3.org/Graphics/SVG/1.1/DTD/svg11.dtd">
<!-- Generated by graphviz version 2.46.0 (20210118.1747)
 -->
<!-- Title: g Pages: 1 -->
<svg width="172pt" height="905pt"
 viewBox="0.00 0.00 172.00 904.60" xmlns="http://www.w3.org/2000/svg" xmlns:xlink="http://www.w3.org/1999/xlink">
<g id="graph0" class="graph" transform="scale(1 1) rotate(0) translate(4 900.6)">
<title>g</title>
<polygon fill="white" stroke="transparent" points="-4,4 -4,-900.6 168,-900.6 168,4 -4,4"/>
<!-- 1 -->
<g id="node1" class="node">
<title>1</title>
<ellipse fill="none" stroke="black" cx="125" cy="-873.6" rx="23" ry="23"/>
<text text-anchor="middle" x="125" y="-869.4" font-family="Times,serif" font-size="14.00">0,0</text>
</g>
<!-- 2 -->
<g id="node2" class="node">
<title>2</title>
<ellipse fill="none" stroke="black" cx="94" cy="-790.6" rx="23" ry="23"/>
<text text-anchor="middle" x="94" y="-786.4" font-family="Times,serif" font-size="14.00">1,1</text>
</g>
<!-- 1&#45;&#45;2 -->
<g id="edge1" class="edge">
<title>1&#45;&#45;2</title>
<path fill="none" stroke="black" d="M112.2,-854.22C106.4,-842.18 100.24,-826.37 96.36,-813.65"/>
</g>
<!-- 0 -->
<g id="node3" class="node">
<title>0</title>
<ellipse fill="none" stroke="black" cx="125" cy="-23" rx="23" ry="23"/>
<text text-anchor="middle" x="125" y="-18.8" font-family="Times,serif" font-size="14.00">9,9</text>
</g>
<!-- 1&#45;&#45;0 -->
<g id="edge2" class="edge">
<title>1&#45;&#45;0</title>
<path fill="none" stroke="black" d="M130.23,-851.05C136.9,-835.17 146,-812.74 146,-791.6 146,-791.6 146,-791.6 146,-105 146,-83.86 136.9,-61.43 130.23,-45.55"/>
</g>
<!-- 2&#45;&#45;1 -->
<g id="edge3" class="edge">
<title>2&#45;&#45;1</title>
<path fill="none" stroke="black" d="M106.75,-809.88C112.56,-821.91 118.72,-837.73 122.62,-850.47"/>
</g>
<!-- 3 -->
<g id="node4" class="node">
<title>3</title>
<ellipse fill="none" stroke="blue" cx="59" cy="-655.8" rx="59" ry="59"/>
<text text-anchor="middle" x="59" y="-651.6" font-family="Times,serif" font-size="14.00">state=2,id=2</text>
</g>
<!-- 2&#45;&#45;3 -->
<g id="edge4" class="edge">
<title>2&#45;&#45;3</title>
<path fill="none" stroke="black" d="M82.8,-770.16C79.53,-763.78 76.24,-756.55 74,-749.6 70.44,-738.57 67.71,-726.52 65.61,-714.87"/>
</g>
<!-- 0&#45;&#45;1 -->
<g id="edge19" class="edge">
<title>0&#45;&#45;1</title>
<path fill="none" stroke="black" d="M141.29,-39.51C152.28,-55.36 164,-81.01 164,-105 164,-791.6 164,-791.6 164,-791.6 164,-815.59 152.28,-841.24 141.29,-857.09"/>
</g>
<!-- 9 -->
<g id="node10" class="node">
<title>9</title>
<ellipse fill="none" stroke="black" cx="95" cy="-106" rx="23" ry="23"/>
<text text-anchor="middle" x="95" y="-101.8" font-family="Times,serif" font-size="14.00">8,8</text>
</g>
<!-- 0&#45;&#45;9 -->
<g id="edge20" class="edge">
<title>0&#45;&#45;9</title>
<path fill="none" stroke="black" d="M122.92,-46.05C119.19,-58.77 113.23,-74.58 107.57,-86.62"/>
</g>
<!-- 3&#45;&#45;2 -->
<g id="edge5" class="edge">
<title>3&#45;&#45;2</title>
<path fill="none" stroke="red" d="M73.82,-713.04C78.97,-732.57 84.43,-753.31 88.38,-768.26"/>
<text text-anchor="middle" x="85.5" y="-737" font-family="Times,serif" font-size="14.00">2</text>
</g>
<!-- 4 -->
<g id="node5" class="node">
<title>4</title>
<ellipse fill="none" stroke="black" cx="92" cy="-521" rx="23" ry="23"/>
<text text-anchor="middle" x="92" y="-516.8" font-family="Times,serif" font-size="14.00">3,3</text>
</g>
<!-- 3&#45;&#45;4 -->
<g id="edge6" class="edge">
<title>3&#45;&#45;4</title>
<path fill="none" stroke="red" d="M57.21,-596.42C58.21,-584.79 60.26,-572.83 64,-562 66.88,-553.67 72.04,-545.5 77.15,-538.75"/>
<text text-anchor="middle" x="67.5" y="-566.2" font-family="Times,serif" font-size="14.00">2</text>
</g>
<!-- 4&#45;&#45;3 -->
<g id="edge7" class="edge">
<title>4&#45;&#45;3</title>
<path fill="none" stroke="black" d="M86.62,-543.66C82.91,-558.57 77.81,-579.11 72.99,-598.48"/>
</g>
<!-- 5 -->
<g id="node6" class="node">
<title>5</title>
<ellipse fill="none" stroke="black" cx="95" cy="-438" rx="23" ry="23"/>
<text text-anchor="middle" x="95" y="-433.8" font-family="Times,serif" font-size="14.00">4,4</text>
</g>
<!-- 4&#45;&#45;5 -->
<g id="edge8" class="edge">
<title>4&#45;&#45;5</title>
<path fill="none" stroke="black" d="M86.75,-498.29C86.25,-486.48 86.8,-471.94 88.2,-460.21"/>
</g>
<!-- 5&#45;&#45;4 -->
<g id="edge9" class="edge">
<title>5&#45;&#45;4</title>
<path fill="none" stroke="black" d="M100.24,-460.42C100.76,-472.26 100.21,-486.91 98.81,-498.72"/>
</g>
<!-- 6 -->
<g id="node7" class="node">
<title>6</title>
<ellipse fill="none" stroke="black" cx="95" cy="-355" rx="23" ry="23"/>
<text text-anchor="middle" x="95" y="-350.8" font-family="Times,serif" font-size="14.00">5,5</text>
</g>
<!-- 5&#45;&#45;6 -->
<g id="edge10" class="edge">
<title>5&#45;&#45;6</title>
<path fill="none" stroke="black" d="M88.98,-415.72C88.01,-403.91 88.01,-389.26 88.97,-377.42"/>
</g>
<!-- 6&#45;&#45;5 -->
<g id="edge11" class="edge">
<title>6&#45;&#45;5</title>
<path fill="none" stroke="black" d="M101.03,-377.42C101.99,-389.26 101.99,-403.91 101.02,-415.72"/>
</g>
<!-- 7 -->
<g id="node8" class="node">
<title>7</title>
<ellipse fill="none" stroke="black" cx="95" cy="-272" rx="23" ry="23"/>
<text text-anchor="middle" x="95" y="-267.8" font-family="Times,serif" font-size="14.00">6,6</text>
</g>
<!-- 6&#45;&#45;7 -->
<g id="edge12" class="edge">
<title>6&#45;&#45;7</title>
<path fill="none" stroke="black" d="M88.98,-332.72C88.01,-320.91 88.01,-306.26 88.97,-294.42"/>
</g>
<!-- 7&#45;&#45;6 -->
<g id="edge13" class="edge">
<title>7&#45;&#45;6</title>
<path fill="none" stroke="black" d="M101.03,-294.42C101.99,-306.26 101.99,-320.91 101.02,-332.72"/>
</g>
<!-- 8 -->
<g id="node9" class="node">
<title>8</title>
<ellipse fill="none" stroke="black" cx="95" cy="-189" rx="23" ry="23"/>
<text text-anchor="middle" x="95" y="-184.8" font-family="Times,serif" font-size="14.00">7,7</text>
</g>
<!-- 7&#45;&#45;8 -->
<g id="edge14" class="edge">
<title>7&#45;&#45;8</title>
<path fill="none" stroke="black" d="M88.98,-249.72C88.01,-237.91 88.01,-223.26 88.97,-211.42"/>
</g>
<!-- 8&#45;&#45;7 -->
<g id="edge15" class="edge">
<title>8&#45;&#45;7</title>
<path fill="none" stroke="black" d="M101.03,-211.42C101.99,-223.26 101.99,-237.91 101.02,-249.72"/>
</g>
<!-- 8&#45;&#45;9 -->
<g id="edge16" class="edge">
<title>8&#45;&#45;9</title>
<path fill="none" stroke="black" d="M88.98,-166.72C88.01,-154.91 88.01,-140.26 88.97,-128.42"/>
</g>
<!-- 9&#45;&#45;0 -->
<g id="edge18" class="edge">
<title>9&#45;&#45;0</title>
<path fill="none" stroke="black" d="M97.11,-82.87C100.82,-70.22 106.73,-54.54 112.35,-42.54"/>
</g>
<!-- 9&#45;&#45;8 -->
<g id="edge17" class="edge">
<title>9&#45;&#45;8</title>
<path fill="none" stroke="black" d="M101.03,-128.42C101.99,-140.26 101.99,-154.91 101.02,-166.72"/>
</g>
</g>
</svg>
