<?xml version="1.0" encoding="UTF-8" standalone="no"?>
<!DOCTYPE svg PUBLIC "-//W3C//DTD SVG 1.1//EN"
 "http://www.w3.org/Graphics/SVG/1.1/DTD/svg11.dtd">
<!-- Generated by graphviz version 2.46.0 (20210118.1747)
 -->
<!-- Title: g Pages: 1 -->
<svg width="127pt" height="905pt"
 viewBox="0.00 0.00 127.00 904.60" xmlns="http://www.w3.org/2000/svg" xmlns:xlink="http://www.w3.org/1999/xlink">
<g id="graph0" class="graph" transform="scale(1 1) rotate(0) translate(4 900.6)">
<title>g</title>
<polygon fill="white" stroke="transparent" points="-4,4 -4,-900.6 123,-900.6 123,4 -4,4"/>
<!-- 1 -->
<g id="node1" class="node">
<title>1</title>
<ellipse fill="none" stroke="blue" cx="60" cy="-837.6" rx="59" ry="59"/>
<text text-anchor="middle" x="60" y="-833.4" font-family="Times,serif" font-size="14.00">state=9,id=0</text>
</g>
<!-- 2 -->
<g id="node2" class="node">
<title>2</title>
<ellipse fill="none" stroke="black" cx="23" cy="-702.8" rx="23" ry="23"/>
<text text-anchor="middle" x="23" y="-698.6" font-family="Times,serif" font-size="14.00">2,1</text>
</g>
<!-- 1&#45;&#45;2 -->
<g id="edge1" class="edge">
<title>1&#45;&#45;2</title>
<path fill="none" stroke="red" d="M34.55,-784.25C31.57,-776.46 28.91,-768.42 27,-760.6 24.25,-749.37 23.18,-736.54 22.83,-725.92"/>
<text text-anchor="middle" x="30.5" y="-748" font-family="Times,serif" font-size="14.00">9</text>
</g>
<!-- 0 -->
<g id="node3" class="node">
<title>0</title>
<ellipse fill="none" stroke="black" cx="49" cy="-23" rx="23" ry="23"/>
<text text-anchor="middle" x="49" y="-18.8" font-family="Times,serif" font-size="14.00">9,9</text>
</g>
<!-- 1&#45;&#45;0 -->
<g id="edge2" class="edge">
<title>1&#45;&#45;0</title>
<path fill="none" stroke="red" d="M68.71,-779.22C71.55,-755.88 74,-728.61 74,-703.8 74,-703.8 74,-703.8 74,-105 74,-83.51 65.87,-60.19 58.88,-44.11"/>
<text text-anchor="middle" x="77.5" y="-400.2" font-family="Times,serif" font-size="14.00">9</text>
</g>
<!-- 2&#45;&#45;1 -->
<g id="edge3" class="edge">
<title>2&#45;&#45;1</title>
<path fill="none" stroke="black" d="M28.98,-725.27C33.17,-740.29 38.96,-761.1 44.42,-780.67"/>
</g>
<!-- 3 -->
<g id="node4" class="node">
<title>3</title>
<ellipse fill="none" stroke="black" cx="23" cy="-619.8" rx="23" ry="23"/>
<text text-anchor="middle" x="23" y="-615.6" font-family="Times,serif" font-size="14.00">3,2</text>
</g>
<!-- 2&#45;&#45;3 -->
<g id="edge4" class="edge">
<title>2&#45;&#45;3</title>
<path fill="none" stroke="black" d="M16.98,-680.52C16.01,-668.71 16.01,-654.06 16.97,-642.22"/>
</g>
<!-- 0&#45;&#45;1 -->
<g id="edge19" class="edge">
<title>0&#45;&#45;1</title>
<path fill="none" stroke="black" d="M67.9,-36.81C86.46,-51.06 112,-75.96 112,-105 112,-703.8 112,-703.8 112,-703.8 112,-732.4 101.42,-762.22 89.8,-786.35"/>
</g>
<!-- 9 -->
<g id="node10" class="node">
<title>9</title>
<ellipse fill="none" stroke="black" cx="23" cy="-106" rx="23" ry="23"/>
<text text-anchor="middle" x="23" y="-101.8" font-family="Times,serif" font-size="14.00">9,8</text>
</g>
<!-- 0&#45;&#45;9 -->
<g id="edge20" class="edge">
<title>0&#45;&#45;9</title>
<path fill="none" stroke="black" d="M47.99,-46.13C44.92,-58.7 39.83,-74.25 34.83,-86.21"/>
</g>
<!-- 3&#45;&#45;2 -->
<g id="edge5" class="edge">
<title>3&#45;&#45;2</title>
<path fill="none" stroke="black" d="M29.03,-642.22C29.99,-654.06 29.99,-668.71 29.02,-680.52"/>
</g>
<!-- 4 -->
<g id="node5" class="node">
<title>4</title>
<ellipse fill="none" stroke="black" cx="23" cy="-536.8" rx="23" ry="23"/>
<text text-anchor="middle" x="23" y="-532.6" font-family="Times,serif" font-size="14.00">4,3</text>
</g>
<!-- 3&#45;&#45;4 -->
<g id="edge6" class="edge">
<title>3&#45;&#45;4</title>
<path fill="none" stroke="black" d="M16.98,-597.52C16.01,-585.71 16.01,-571.06 16.97,-559.22"/>
</g>
<!-- 4&#45;&#45;3 -->
<g id="edge7" class="edge">
<title>4&#45;&#45;3</title>
<path fill="none" stroke="black" d="M29.03,-559.22C29.99,-571.06 29.99,-585.71 29.02,-597.52"/>
</g>
<!-- 5 -->
<g id="node6" class="node">
<title>5</title>
<ellipse fill="none" stroke="black" cx="23" cy="-453.8" rx="23" ry="23"/>
<text text-anchor="middle" x="23" y="-449.6" font-family="Times,serif" font-size="14.00">5,4</text>
</g>
<!-- 4&#45;&#45;5 -->
<g id="edge8" class="edge">
<title>4&#45;&#45;5</title>
<path fill="none" stroke="black" d="M16.98,-514.52C16.01,-502.71 16.01,-488.06 16.97,-476.22"/>
</g>
<!-- 5&#45;&#45;4 -->
<g id="edge9" class="edge">
<title>5&#45;&#45;4</title>
<path fill="none" stroke="black" d="M29.03,-476.22C29.99,-488.06 29.99,-502.71 29.02,-514.52"/>
</g>
<!-- 6 -->
<g id="node7" class="node">
<title>6</title>
<ellipse fill="none" stroke="black" cx="23" cy="-355" rx="23" ry="23"/>
<text text-anchor="middle" x="23" y="-350.8" font-family="Times,serif" font-size="14.00">6,5</text>
</g>
<!-- 5&#45;&#45;6 -->
<g id="edge10" class="edge">
<title>5&#45;&#45;6</title>
<path fill="none" stroke="black" d="M17.28,-431.32C15.9,-415.28 15.91,-393.45 17.29,-377.42"/>
</g>
<!-- 6&#45;&#45;5 -->
<g id="edge11" class="edge">
<title>6&#45;&#45;5</title>
<path fill="none" stroke="black" d="M28.71,-377.42C30.09,-393.45 30.1,-415.28 28.72,-431.32"/>
</g>
<!-- 7 -->
<g id="node8" class="node">
<title>7</title>
<ellipse fill="none" stroke="black" cx="23" cy="-272" rx="23" ry="23"/>
<text text-anchor="middle" x="23" y="-267.8" font-family="Times,serif" font-size="14.00">7,6</text>
</g>
<!-- 6&#45;&#45;7 -->
<g id="edge12" class="edge">
<title>6&#45;&#45;7</title>
<path fill="none" stroke="black" d="M16.98,-332.72C16.01,-320.91 16.01,-306.26 16.97,-294.42"/>
</g>
<!-- 7&#45;&#45;6 -->
<g id="edge13" class="edge">
<title>7&#45;&#45;6</title>
<path fill="none" stroke="black" d="M29.03,-294.42C29.99,-306.26 29.99,-320.91 29.02,-332.72"/>
</g>
<!-- 8 -->
<g id="node9" class="node">
<title>8</title>
<ellipse fill="none" stroke="black" cx="23" cy="-189" rx="23" ry="23"/>
<text text-anchor="middle" x="23" y="-184.8" font-family="Times,serif" font-size="14.00">8,7</text>
</g>
<!-- 7&#45;&#45;8 -->
<g id="edge14" class="edge">
<title>7&#45;&#45;8</title>
<path fill="none" stroke="black" d="M16.98,-249.72C16.01,-237.91 16.01,-223.26 16.97,-211.42"/>
</g>
<!-- 8&#45;&#45;7 -->
<g id="edge15" class="edge">
<title>8&#45;&#45;7</title>
<path fill="none" stroke="black" d="M29.03,-211.42C29.99,-223.26 29.99,-237.91 29.02,-249.72"/>
</g>
<!-- 8&#45;&#45;9 -->
<g id="edge16" class="edge">
<title>8&#45;&#45;9</title>
<path fill="none" stroke="black" d="M16.98,-166.72C16.01,-154.91 16.01,-140.26 16.97,-128.42"/>
</g>
<!-- 9&#45;&#45;0 -->
<g id="edge18" class="edge">
<title>9&#45;&#45;0</title>
<path fill="none" stroke="black" d="M24.01,-82.87C27.08,-70.31 32.16,-54.77 37.16,-42.81"/>
</g>
<!-- 9&#45;&#45;8 -->
<g id="edge17" class="edge">
<title>9&#45;&#45;8</title>
<path fill="none" stroke="black" d="M29.03,-128.42C29.99,-140.26 29.99,-154.91 29.02,-166.72"/>
</g>
</g>
</svg>
