<?xml version="1.0" encoding="UTF-8" standalone="no"?>
<!DOCTYPE svg PUBLIC "-//W3C//DTD SVG 1.1//EN"
 "http://www.w3.org/Graphics/SVG/1.1/DTD/svg11.dtd">
<!-- Generated by graphviz version 2.46.0 (20210118.1747)
 -->
<!-- Title: g Pages: 1 -->
<svg width="172pt" height="905pt"
 viewBox="0.00 0.00 172.00 904.60" xmlns="http://www.w3.org/2000/svg" xmlns:xlink="http://www.w3.org/1999/xlink">
<g id="graph0" class="graph" transform="scale(1 1) rotate(0) translate(4 900.6)">
<title>g</title>
<polygon fill="white" stroke="transparent" points="-4,4 -4,-900.6 168,-900.6 168,4 -4,4"/>
<!-- 1 -->
<g id="node1" class="node">
<title>1</title>
<ellipse fill="none" stroke="black" cx="125" cy="-873.6" rx="23" ry="23"/>
<text text-anchor="middle" x="125" y="-869.4" font-family="Times,serif" font-size="14.00">9,0</text>
</g>
<!-- 2 -->
<g id="node2" class="node">
<title>2</title>
<ellipse fill="none" stroke="black" cx="95" cy="-790.6" rx="23" ry="23"/>
<text text-anchor="middle" x="95" y="-786.4" font-family="Times,serif" font-size="14.00">2,1</text>
</g>
<!-- 1&#45;&#45;2 -->
<g id="edge1" class="edge">
<title>1&#45;&#45;2</title>
<path fill="none" stroke="black" d="M112.43,-854.22C106.77,-842.18 100.81,-826.37 97.08,-813.65"/>
</g>
<!-- 0 -->
<g id="node3" class="node">
<title>0</title>
<ellipse fill="none" stroke="black" cx="128" cy="-23" rx="23" ry="23"/>
<text text-anchor="middle" x="128" y="-18.8" font-family="Times,serif" font-size="14.00">9,9</text>
</g>
<!-- 1&#45;&#45;0 -->
<g id="edge2" class="edge">
<title>1&#45;&#45;0</title>
<path fill="none" stroke="black" d="M130.23,-851.05C136.9,-835.17 146,-812.74 146,-791.6 146,-791.6 146,-791.6 146,-156.8 146,-117.27 134.37,-72.43 128.92,-46.28"/>
</g>
<!-- 2&#45;&#45;1 -->
<g id="edge3" class="edge">
<title>2&#45;&#45;1</title>
<path fill="none" stroke="black" d="M107.65,-810.14C113.27,-822.14 119.18,-837.82 122.89,-850.47"/>
</g>
<!-- 3 -->
<g id="node4" class="node">
<title>3</title>
<ellipse fill="none" stroke="black" cx="95" cy="-707.6" rx="23" ry="23"/>
<text text-anchor="middle" x="95" y="-703.4" font-family="Times,serif" font-size="14.00">3,2</text>
</g>
<!-- 2&#45;&#45;3 -->
<g id="edge4" class="edge">
<title>2&#45;&#45;3</title>
<path fill="none" stroke="black" d="M88.98,-768.32C88.01,-756.51 88.01,-741.86 88.97,-730.02"/>
</g>
<!-- 0&#45;&#45;1 -->
<g id="edge19" class="edge">
<title>0&#45;&#45;1</title>
<path fill="none" stroke="black" d="M140.34,-42.67C151.24,-68.15 164,-115.39 164,-156.8 164,-791.6 164,-791.6 164,-791.6 164,-815.59 152.28,-841.24 141.29,-857.09"/>
</g>
<!-- 9 -->
<g id="node10" class="node">
<title>9</title>
<ellipse fill="none" stroke="blue" cx="59" cy="-157.8" rx="59" ry="59"/>
<text text-anchor="middle" x="59" y="-153.6" font-family="Times,serif" font-size="14.00">state=9,id=8</text>
</g>
<!-- 0&#45;&#45;9 -->
<g id="edge20" class="edge">
<title>0&#45;&#45;9</title>
<path fill="none" stroke="black" d="M117.64,-43.93C109.24,-60.11 97,-83.66 85.87,-105.08"/>
</g>
<!-- 3&#45;&#45;2 -->
<g id="edge5" class="edge">
<title>3&#45;&#45;2</title>
<path fill="none" stroke="black" d="M101.03,-730.02C101.99,-741.86 101.99,-756.51 101.02,-768.32"/>
</g>
<!-- 4 -->
<g id="node5" class="node">
<title>4</title>
<ellipse fill="none" stroke="black" cx="95" cy="-624.6" rx="23" ry="23"/>
<text text-anchor="middle" x="95" y="-620.4" font-family="Times,serif" font-size="14.00">4,3</text>
</g>
<!-- 3&#45;&#45;4 -->
<g id="edge6" class="edge">
<title>3&#45;&#45;4</title>
<path fill="none" stroke="black" d="M88.98,-685.32C88.01,-673.51 88.01,-658.86 88.97,-647.02"/>
</g>
<!-- 4&#45;&#45;3 -->
<g id="edge7" class="edge">
<title>4&#45;&#45;3</title>
<path fill="none" stroke="black" d="M101.03,-647.02C101.99,-658.86 101.99,-673.51 101.02,-685.32"/>
</g>
<!-- 5 -->
<g id="node6" class="node">
<title>5</title>
<ellipse fill="none" stroke="black" cx="95" cy="-541.6" rx="23" ry="23"/>
<text text-anchor="middle" x="95" y="-537.4" font-family="Times,serif" font-size="14.00">5,4</text>
</g>
<!-- 4&#45;&#45;5 -->
<g id="edge8" class="edge">
<title>4&#45;&#45;5</title>
<path fill="none" stroke="black" d="M88.98,-602.32C88.01,-590.51 88.01,-575.86 88.97,-564.02"/>
</g>
<!-- 5&#45;&#45;4 -->
<g id="edge9" class="edge">
<title>5&#45;&#45;4</title>
<path fill="none" stroke="black" d="M101.03,-564.02C101.99,-575.86 101.99,-590.51 101.02,-602.32"/>
</g>
<!-- 6 -->
<g id="node7" class="node">
<title>6</title>
<ellipse fill="none" stroke="black" cx="95" cy="-458.6" rx="23" ry="23"/>
<text text-anchor="middle" x="95" y="-454.4" font-family="Times,serif" font-size="14.00">6,5</text>
</g>
<!-- 5&#45;&#45;6 -->
<g id="edge10" class="edge">
<title>5&#45;&#45;6</title>
<path fill="none" stroke="black" d="M88.98,-519.32C88.01,-507.51 88.01,-492.86 88.97,-481.02"/>
</g>
<!-- 6&#45;&#45;5 -->
<g id="edge11" class="edge">
<title>6&#45;&#45;5</title>
<path fill="none" stroke="black" d="M101.03,-481.02C101.99,-492.86 101.99,-507.51 101.02,-519.32"/>
</g>
<!-- 7 -->
<g id="node8" class="node">
<title>7</title>
<ellipse fill="none" stroke="black" cx="95" cy="-375.6" rx="23" ry="23"/>
<text text-anchor="middle" x="95" y="-371.4" font-family="Times,serif" font-size="14.00">7,6</text>
</g>
<!-- 6&#45;&#45;7 -->
<g id="edge12" class="edge">
<title>6&#45;&#45;7</title>
<path fill="none" stroke="black" d="M88.98,-436.32C88.01,-424.51 88.01,-409.86 88.97,-398.02"/>
</g>
<!-- 7&#45;&#45;6 -->
<g id="edge13" class="edge">
<title>7&#45;&#45;6</title>
<path fill="none" stroke="black" d="M101.03,-398.02C101.99,-409.86 101.99,-424.51 101.02,-436.32"/>
</g>
<!-- 8 -->
<g id="node9" class="node">
<title>8</title>
<ellipse fill="none" stroke="black" cx="93" cy="-292.6" rx="23" ry="23"/>
<text text-anchor="middle" x="93" y="-288.4" font-family="Times,serif" font-size="14.00">8,7</text>
</g>
<!-- 7&#45;&#45;8 -->
<g id="edge14" class="edge">
<title>7&#45;&#45;8</title>
<path fill="none" stroke="black" d="M88.45,-353.32C87.19,-341.51 86.83,-326.86 87.49,-315.02"/>
</g>
<!-- 8&#45;&#45;7 -->
<g id="edge15" class="edge">
<title>8&#45;&#45;7</title>
<path fill="none" stroke="black" d="M99.54,-314.81C100.79,-326.54 101.17,-341.08 100.52,-352.89"/>
</g>
<!-- 8&#45;&#45;9 -->
<g id="edge16" class="edge">
<title>8&#45;&#45;9</title>
<path fill="none" stroke="black" d="M82.38,-272.11C79.28,-265.73 76.15,-258.5 74,-251.6 70.56,-240.54 67.87,-228.47 65.78,-216.81"/>
</g>
<!-- 9&#45;&#45;0 -->
<g id="edge18" class="edge">
<title>9&#45;&#45;0</title>
<path fill="none" stroke="red" d="M73.39,-100.58C77.77,-88.07 83.26,-75.21 90,-64 95.62,-54.64 103.77,-45.68 111.09,-38.63"/>
<text text-anchor="middle" x="93.5" y="-68.2" font-family="Times,serif" font-size="14.00">9</text>
</g>
<!-- 9&#45;&#45;8 -->
<g id="edge17" class="edge">
<title>9&#45;&#45;8</title>
<path fill="none" stroke="red" d="M73.41,-215.1C78.38,-234.48 83.64,-255.05 87.46,-269.97"/>
<text text-anchor="middle" x="85.5" y="-239" font-family="Times,serif" font-size="14.00">9</text>
</g>
</g>
</svg>
