<?xml version="1.0" encoding="UTF-8" standalone="no"?>
<!DOCTYPE svg PUBLIC "-//W3C//DTD SVG 1.1//EN"
 "http://www.w3.org/Graphics/SVG/1.1/DTD/svg11.dtd">
<!-- Generated by graphviz version 2.46.0 (20210118.1747)
 -->
<!-- Title: g Pages: 1 -->
<svg width="206pt" height="222pt"
 viewBox="0.00 0.00 206.00 221.60" xmlns="http://www.w3.org/2000/svg" xmlns:xlink="http://www.w3.org/1999/xlink">
<g id="graph0" class="graph" transform="scale(1 1) rotate(0) translate(4 217.6)">
<title>g</title>
<polygon fill="white" stroke="transparent" points="-4,4 -4,-217.6 202,-217.6 202,4 -4,4"/>
<!-- 1 -->
<g id="node1" class="node">
<title>1</title>
<ellipse fill="red" stroke="red" cx="63" cy="-18" rx="27" ry="18"/>
<text text-anchor="middle" x="63" y="-13.8" font-family="Times,serif" font-size="14.00">1</text>
</g>
<!-- 2 -->
<g id="node2" class="node">
<title>2</title>
<ellipse fill="red" stroke="red" cx="27" cy="-106.8" rx="27" ry="18"/>
<text text-anchor="middle" x="27" y="-102.6" font-family="Times,serif" font-size="14.00">2</text>
</g>
<!-- 2&#45;&#45;1 -->
<g id="edge1" class="edge">
<title>2&#45;&#45;1</title>
<path fill="none" stroke="black" d="M28.24,-88.42C29.47,-78.07 31.89,-64.88 36.68,-54 39.87,-46.76 44.81,-39.63 49.55,-33.71"/>
<text text-anchor="middle" x="55.66" y="-58.2" font-family="Times,serif" font-size="14.00">edge:1</text>
</g>
<!-- 3 -->
<g id="node3" class="node">
<title>3</title>
<ellipse fill="red" stroke="red" cx="27" cy="-195.6" rx="27" ry="18"/>
<text text-anchor="middle" x="27" y="-191.4" font-family="Times,serif" font-size="14.00">3</text>
</g>
<!-- 3&#45;&#45;2 -->
<g id="edge2" class="edge">
<title>3&#45;&#45;2</title>
<path fill="none" stroke="black" d="M27,-177.45C27,-162.23 27,-140.12 27,-124.91"/>
<text text-anchor="middle" x="45.66" y="-147" font-family="Times,serif" font-size="14.00">edge:3</text>
</g>
<!-- 4 -->
<g id="node4" class="node">
<title>4</title>
<ellipse fill="red" stroke="red" cx="99" cy="-106.8" rx="27" ry="18"/>
<text text-anchor="middle" x="99" y="-102.6" font-family="Times,serif" font-size="14.00">4</text>
</g>
<!-- 4&#45;&#45;1 -->
<g id="edge3" class="edge">
<title>4&#45;&#45;1</title>
<path fill="none" stroke="black" d="M92.06,-89.06C85.68,-73.69 76.29,-51.04 69.92,-35.68"/>
<text text-anchor="middle" x="102.66" y="-58.2" font-family="Times,serif" font-size="14.00">edge:2</text>
</g>
<!-- 5 -->
<g id="node5" class="node">
<title>5</title>
<ellipse fill="red" stroke="red" cx="99" cy="-195.6" rx="27" ry="18"/>
<text text-anchor="middle" x="99" y="-191.4" font-family="Times,serif" font-size="14.00">5</text>
</g>
<!-- 5&#45;&#45;4 -->
<g id="edge4" class="edge">
<title>5&#45;&#45;4</title>
<path fill="none" stroke="black" d="M99,-177.45C99,-162.23 99,-140.12 99,-124.91"/>
<text text-anchor="middle" x="117.66" y="-147" font-family="Times,serif" font-size="14.00">edge:4</text>
</g>
<!-- 6 -->
<g id="node6" class="node">
<title>6</title>
<ellipse fill="blue" stroke="blue" cx="171" cy="-195.6" rx="27" ry="18"/>
<text text-anchor="middle" x="171" y="-191.4" font-family="Times,serif" font-size="14.00">6</text>
</g>
<!-- 6&#45;&#45;4 -->
<g id="edge5" class="edge">
<title>6&#45;&#45;4</title>
<path fill="none" stroke="black" d="M163.02,-178.3C157.38,-167.62 149.2,-153.69 140,-142.8 133.11,-134.65 124.23,-126.82 116.49,-120.64"/>
<text text-anchor="middle" x="169.66" y="-147" font-family="Times,serif" font-size="14.00">edge:5</text>
</g>
</g>
</svg>
